<?xml version="1.0" standalone="no"?>
<!DOCTYPE svg PUBLIC "-//W3C//DTD SVG 20010904//EN"
 "http://www.w3.org/TR/2001/REC-SVG-20010904/DTD/svg10.dtd">
<svg version="1.0" xmlns="http://www.w3.org/2000/svg"
 width="1024.000000pt" height="1024.000000pt" viewBox="0 0 1024.000000 1024.000000"
 preserveAspectRatio="xMidYMid meet">

<g transform="translate(0.000000,1024.000000) scale(0.100000,-0.100000)"
fill="#000000" stroke="none">
<path d="M2561 6009 c-338 -66 -620 -324 -716 -655 -37 -126 -34 -135 20 -80
60 62 97 63 160 5 25 -23 47 -40 48 -38 2 2 8 27 15 54 24 97 90 213 161 284
211 211 516 266 776 140 130 -64 246 -174 306 -291 21 -41 15 -48 -47 -48 -37
0 -52 -18 -37 -44 19 -35 267 -277 281 -274 17 3 202 314 202 341 0 9 -6 17
-12 18 -24 2 -83 -2 -99 -7 -12 -3 -22 10 -40 53 -60 148 -225 338 -367 423
-91 53 -205 98 -299 116 -81 15 -281 17 -352 3z"/>
<path d="M4020 5313 l0 -403 198 0 c216 0 277 9 364 57 63 34 123 100 156 171
24 51 27 68 27 172 0 110 -2 119 -32 181 -39 79 -111 150 -187 185 -71 32
-181 45 -370 42 l-156 -3 0 -402z m436 220 c76 -40 134 -136 134 -223 0 -49
-31 -130 -63 -167 -50 -57 -95 -73 -214 -73 l-103 0 0 246 0 246 103 -4 c79
-3 111 -9 143 -25z"/>
<path d="M5093 5536 c-175 -55 -269 -235 -214 -414 95 -313 551 -302 637 15
56 208 -104 415 -319 412 -34 0 -81 -6 -104 -13z m87 -86 c0 -11 7 -20 15 -20
8 0 15 9 15 20 0 44 107 11 169 -51 114 -115 88 -312 -52 -393 -23 -13 -59
-28 -79 -31 -36 -7 -38 -6 -38 19 0 16 -5 26 -15 26 -9 0 -15 -9 -15 -25 0
-31 -27 -33 -85 -6 -61 28 -105 70 -131 126 -31 66 -31 85 1 85 18 0 25 5 25
20 0 13 -7 20 -20 20 -11 0 -23 6 -26 14 -8 22 34 110 69 144 65 63 167 95
167 52z"/>
<path d="M5170 5292 l0 -87 75 -40 c64 -34 77 -38 85 -25 16 24 13 27 -50 61
l-60 32 0 73 c0 72 -1 74 -25 74 -25 0 -25 -1 -25 -88z"/>
<path d="M5811 5514 c-127 -45 -201 -145 -209 -284 -5 -100 22 -175 88 -240
123 -124 355 -119 461 9 16 20 29 41 29 47 0 7 -31 24 -69 39 l-70 28 -31 -27
c-100 -83 -230 -11 -230 128 0 142 129 214 230 129 l31 -25 74 28 c41 16 75
33 75 37 0 4 -21 30 -46 57 -58 62 -127 90 -222 90 -37 -1 -87 -8 -111 -16z"/>
<path d="M2640 5301 l0 -90 -87 -3 -88 -3 0 -90 0 -90 87 -3 87 -3 3 -87 3
-87 90 0 90 0 3 87 3 87 87 3 87 3 3 70 c5 116 6 115 -93 115 l-84 0 -3 88 -3
87 -92 3 -93 3 0 -90z"/>
<path d="M5832 4588 c3 -136 5 -153 21 -156 16 -3 17 9 17 152 0 150 -1 156
-20 156 -20 0 -20 -5 -18 -152z"/>
<path d="M5970 4714 c0 -33 33 -30 38 4 3 17 -2 22 -17 22 -16 0 -21 -6 -21
-26z"/>
<path d="M6380 4715 c0 -18 5 -25 20 -25 15 0 20 7 20 25 0 18 -5 25 -20 25
-15 0 -20 -7 -20 -25z"/>
<path d="M4054 4706 c-21 -18 -28 -32 -28 -61 0 -44 14 -57 88 -81 61 -20 76
-31 76 -54 0 -42 -76 -58 -125 -26 -30 20 -41 20 -49 1 -9 -26 51 -55 112 -55
46 0 58 4 83 29 32 32 35 47 17 85 -8 18 -28 32 -67 46 -78 28 -86 33 -89 64
-5 38 34 51 91 31 52 -18 54 -18 61 0 8 21 -44 45 -98 45 -33 0 -52 -6 -72
-24z"/>
<path d="M5559 4707 c-126 -84 -67 -277 84 -277 70 0 147 49 103 66 -7 3 -29
-4 -47 -15 -19 -12 -42 -21 -52 -21 -51 0 -117 67 -117 118 0 60 57 122 112
122 12 0 38 -9 57 -21 29 -18 36 -19 48 -6 13 12 10 17 -20 36 -48 29 -123 29
-168 -2z"/>
<path d="M6973 4714 c-70 -35 -97 -147 -53 -219 17 -28 72 -65 95 -65 4 0 23
-13 42 -30 37 -33 95 -41 127 -17 16 12 16 15 3 26 -10 8 -17 9 -22 1 -11 -18
-85 -9 -85 10 0 4 16 17 35 29 48 28 75 76 75 132 0 110 -117 182 -217 133z
m149 -52 c58 -57 40 -154 -36 -190 -94 -46 -194 79 -137 171 11 18 31 39 43
45 38 19 97 7 130 -26z"/>
<path d="M5190 4685 c0 -28 -4 -35 -20 -35 -11 0 -20 -7 -20 -15 0 -8 9 -15
20 -15 18 0 20 -7 20 -76 0 -97 9 -114 60 -114 33 0 40 3 40 19 0 14 -8 21
-27 23 -27 3 -28 5 -31 76 l-3 72 31 0 c20 0 30 5 30 15 0 10 -10 15 -30 15
-28 0 -30 3 -30 35 0 28 -4 35 -20 35 -16 0 -20 -7 -20 -35z"/>
<path d="M6564 4646 c-45 -20 -64 -53 -64 -109 0 -40 5 -53 29 -78 37 -36 105
-41 142 -9 33 27 9 45 -31 22 -34 -20 -70 -7 -96 32 -42 65 49 153 105 102 11
-10 21 -12 31 -6 13 8 12 12 -5 29 -27 27 -73 34 -111 17z"/>
<path d="M4310 4540 c0 -103 1 -110 20 -110 18 0 20 7 20 73 0 60 4 77 20 95
26 27 44 28 70 2 16 -16 20 -33 20 -95 0 -68 2 -75 20 -75 18 0 20 7 20 75 0
62 3 78 21 96 20 20 51 19 74 -3 5 -5 12 -45 14 -88 3 -72 5 -80 23 -80 19 0
20 6 16 91 -3 81 -6 93 -27 110 -28 23 -79 25 -109 3 -21 -15 -25 -15 -41 0
-23 21 -79 21 -103 -1 -17 -15 -18 -15 -18 0 0 10 -8 17 -20 17 -19 0 -20 -7
-20 -110z"/>
<path d="M4752 4639 c-13 -5 -22 -15 -19 -21 4 -13 11 -13 70 -1 19 4 34 0 47
-12 36 -33 25 -45 -40 -45 -68 0 -100 -21 -100 -65 0 -54 75 -84 133 -54 16 9
22 9 25 0 2 -6 12 -11 23 -11 17 0 19 8 19 69 0 78 -14 127 -40 141 -23 12
-87 12 -118 -1z m102 -105 c38 -15 -4 -74 -53 -74 -53 0 -67 50 -19 70 28 11
51 12 72 4z"/>
<path d="M4990 4540 c0 -103 1 -110 20 -110 18 0 20 7 20 64 0 70 24 116 61
116 12 0 19 7 19 20 0 24 -32 27 -50 5 -7 -8 -16 -15 -21 -15 -5 0 -9 7 -9 15
0 8 -9 15 -20 15 -19 0 -20 -7 -20 -110z"/>
<path d="M5970 4540 c0 -103 1 -110 20 -110 19 0 20 7 20 110 0 103 -1 110
-20 110 -19 0 -20 -7 -20 -110z"/>
<path d="M6100 4540 c0 -103 1 -110 20 -110 18 0 20 7 20 75 0 62 4 79 20 95
22 22 42 25 71 10 16 -9 19 -22 19 -95 0 -78 2 -85 20 -85 18 0 20 7 20 88 0
109 -12 132 -72 132 -25 0 -49 -7 -60 -17 -17 -15 -18 -15 -18 0 0 10 -8 17
-20 17 -19 0 -20 -7 -20 -110z"/>
<path d="M6380 4540 c0 -103 1 -110 20 -110 19 0 20 7 20 110 0 103 -1 110
-20 110 -19 0 -20 -7 -20 -110z"/>
<path d="M7270 4560 c0 -77 3 -93 20 -110 24 -24 72 -26 105 -4 23 15 25 15
25 0 0 -9 8 -16 20 -16 19 0 20 7 20 110 0 103 -1 110 -20 110 -18 0 -20 -7
-20 -75 0 -63 -3 -77 -22 -95 -28 -25 -52 -26 -78 0 -16 16 -20 33 -20 95 0
60 -3 75 -15 75 -12 0 -15 -17 -15 -90z"/>
<path d="M7571 4624 c-75 -63 -31 -194 66 -194 37 0 93 24 93 40 0 13 -37 13
-45 0 -3 -5 -22 -10 -41 -10 -36 0 -74 28 -74 56 0 13 13 15 85 12 l85 -3 0
33 c0 81 -104 121 -169 66z m127 -39 c6 -12 8 -26 5 -29 -11 -11 -133 -7 -133
5 0 21 22 50 43 58 30 11 72 -5 85 -34z"/>
<path d="M7814 4635 c-4 -8 -4 -48 -2 -89 4 -90 22 -116 78 -116 21 0 43 7 50
15 7 8 16 15 21 15 5 0 9 -7 9 -15 0 -8 7 -15 15 -15 12 0 15 19 15 110 0 90
-3 110 -15 110 -11 0 -15 -17 -17 -76 -3 -71 -5 -79 -31 -98 -26 -19 -30 -19
-55 -5 -25 14 -27 19 -30 97 -2 65 -6 82 -18 82 -8 0 -17 -7 -20 -15z"/>
<path d="M8114 4616 c-28 -28 -34 -42 -34 -76 0 -35 6 -48 35 -77 33 -33 39
-35 81 -30 45 5 85 29 71 43 -4 4 -18 2 -32 -4 -14 -7 -37 -12 -51 -12 -28 0
-79 44 -69 60 3 6 45 10 92 10 l86 0 -7 33 c-9 45 -57 87 -102 87 -28 0 -44
-8 -70 -34z m128 -19 c4 -7 8 -20 8 -29 0 -15 -10 -18 -65 -18 -57 0 -65 2
-65 18 0 20 24 46 50 54 18 6 62 -9 72 -25z"/>
</g>
</svg>
